<svg width="387" height="462" viewBox="0 0 387 462" fill="none" xmlns="http://www.w3.org/2000/svg">
<path d="M193.125 0L0 83.8333V209.583C0 325.902 82.4 434.676 193.125 461.083C303.85 434.676 386.25 325.902 386.25 209.583V83.8333L193.125 0ZM193.125 125.75C223.167 125.75 253.208 148.804 253.208 178.146V209.583C266.083 209.583 278.958 222.158 278.958 236.829V310.183C278.958 322.758 266.083 335.333 251.062 335.333H133.042C120.167 335.333 107.292 322.758 107.292 308.087V234.733C107.292 222.158 120.167 209.583 133.042 209.583V178.146C133.042 148.804 163.083 125.75 193.125 125.75ZM193.125 150.9C175.958 150.9 160.938 161.379 160.938 178.146V209.583H225.312V178.146C225.312 161.379 210.292 150.9 193.125 150.9Z" fill="url(#paint0_linear_11_13)"/>
<defs>
<linearGradient id="paint0_linear_11_13" x1="386.25" y1="229.722" x2="1.53985e-05" y2="231.362" gradientUnits="userSpaceOnUse">
<stop stop-color="#012323"/>
<stop offset="0.48" stop-color="#046060"/>
<stop offset="0.5299" stop-color="#057474"/>
<stop offset="0.53" stop-color="#057373"/>
<stop offset="1" stop-color="#068989"/>
</linearGradient>
</defs>
</svg>
